{"title":"Lex's.Breast.Fest.WEBRip.Split.Scene.x264.Iou1","uid":8935819,"size":1557191088,"categoryP":"porn","categoryS":"movies","magnet":"?xt=urn:btih:47da122c2f1703bdd3bbcc89e3d845c13e99ad33&amp;dn=Lex%27s.Breast.Fest.WEBRip.Split.Scene.x264.Iou1&amp;tr=udp%3A%2F%2Ftracker.openbittorrent.com%3A80&amp;tr=udp%3A%2F%2Fopen.demonii.com%3A1337&amp;tr=udp%3A%2F%2Ftracker.coppersurfer.tk%3A6969&amp;tr=udp%3A%2F%2Fexodus.desync.com%3A6969","seeders":0,"leechers":13,"uploader":"jaybee211","files":-1,"time":1379559325,"description":"Genre                                    : XXX\nFormat                                   : MPEG-4\nFormat profile                           : Base Media / Version 2\nCodec ID                                 : mp42\nFile size                                : 1.45 GiB\nDuration                                 : 2h 58mn 42s\nOverall bit rate mode                    : Variable\nOverall bit rate                         : 1 162 Kbps\n\nVideo\nID                                       : 1\nFormat                                   : AVC\nFormat/Info                              : Advanced Video Codec\nFormat profile                           : &lt;a class=&quot;__cf_email__&quot; href=&quot;/cdn-cgi/l/email-protection&quot; data-cfemail=&quot;420a2b252a020e716c72&quot;&gt;[email&amp;#160;protected]&lt;/a&gt;&lt;script cf-hash='f9e31' type=&quot;text/javascript&quot;&gt;\n/* &lt;![CDATA[ */!function(){try{var t=&quot;currentScript&quot;in document?document.currentScript:function(){for(var t=document.getElementsByTagName(&quot;script&quot;),e=t.length;e--;)if(t[e].getAttribute(&quot;cf-hash&quot;))return t[e]}();if(t&amp;&amp;t.previousSibling){var e,r,n,i,c=t.previousSibling,a=c.getAttribute(&quot;data-cfemail&quot;);if(a){for(e=&quot;&quot;,r=parseInt(a.substr(0,2),16),n=2;a.length-n;n+=2)i=parseInt(a.substr(n,2),16)^r,e+=String.fromCharCode(i);e=document.createTextNode(e),c.parentNode.replaceChild(e,c)}}}catch(u){}}();/* ]]&gt; */&lt;/script&gt;\nFormat settings, CABAC                   : Yes\nFormat settings, ReFrames                : 4 frames\nCodec ID                                 : avc1\nCodec ID/Info                            : Advanced Video Coding\nDuration                                 : 2h 58mn 42s\nBit rate mode                            : Variable\nBit rate                                 : 1 095 Kbps\nMaximum bit rate                         : 2 125 Kbps\nWidth                                    : 720 pixels\nHeight                                   : 408 pixels\nDisplay aspect ratio                     : 16:9\nFrame rate mode                          : Constant\nFrame rate                               : 29.970 fps\nStandard                                 : NTSC\nColor space                              : YUV\nChroma subsampling                       : 4:2:0\nBit depth                                : 8 bits\nScan type                                : Progressive\nBits/(Pixel*Frame)                       : 0.124\nStream size                              : 1.37 MiB (95%)\nLanguage                                 : English\n\nAudio\nID                                       : 2\nFormat                                   : AAC\nFormat/Info                              : Advanced Audio Codec\nFormat profile                           : LC\nCodec ID                                 : 40\nDuration                                 : 2h 58mn 42s\nBit rate mode                            : Variable\nBit rate                                 : 61.9 Kbps\nMaximum bit rate                         : 73.4 Kbps\nChannel(s)                               : 2 channels\nChannel positions                        : Front: L R\nSampling rate                            : 48.0 KHz\nCompression mode                         : Lossy\nStream size                              : 73 MiB (5%)\n\nScreens. &lt;a href=&quot; http://bayimg.com/AapDAAAeL&quot; rel=&quot;nofollow&quot; target=&quot;_NEW&quot;&gt; http://bayimg.com/AapDAAAeL&lt;/a&gt;\n\n         &lt;a href=&quot; http://bayimg.com/AaPDBaAel&quot; rel=&quot;nofollow&quot; target=&quot;_NEW&quot;&gt; http://bayimg.com/AaPDBaAel&lt;/a&gt;\n\n         &lt;a href=&quot; http://bayimg.com/aApdCaAel&quot; rel=&quot;nofollow&quot; target=&quot;_NEW&quot;&gt; http://bayimg.com/aApdCaAel&lt;/a&gt;\n\n         &lt;a href=&quot; http://bayimg.com/AAPDDAAel&quot; rel=&quot;nofollow&quot; target=&quot;_NEW&quot;&gt; http://bayimg.com/AAPDDAAel&lt;/a&gt;\n\nEnjoy.","torrent":{"xt":"urn:btih:47da122c2f1703bdd3bbcc89e3d845c13e99ad33","amp;dn":"Lex%27s.Breast.Fest.WEBRip.Split.Scene.x264.Iou1","amp;tr":["udp%3A%2F%2Ftracker.openbittorrent.com%3A80","udp%3A%2F%2Fopen.demonii.com%3A1337","udp%3A%2F%2Ftracker.coppersurfer.tk%3A6969","udp%3A%2F%2Fexodus.desync.com%3A6969"],"infoHash":"47da122c2f1703bdd3bbcc89e3d845c13e99ad33","infoHashBuffer":{"type":"Buffer","data":[71,218,18,44,47,23,3,189,211,187,204,137,227,216,69,193,62,153,173,51]},"announce":[],"urlList":[]}}